# xmcd
#
# Track frame offsets: 
#        150
#        13813
#        27860
#        43800
#        59475
#        74508
#        86940
#        103735
#        116313
#        132030
#        146633
#        166005
#        180600
#        198613
#        212113
#        226068
#        242130
#        258428
#        274328
#
# Disc length: 3824 seconds
#
# Revision: 6
# Processed by: cddbd v1.5.2PL0 Copyright (c) Steve Scherf et al.
# Submitted via: ExactAudioCopyFreeDBPlugin 1.0
#
DISCID=1a0eee13
DTITLE=Various Artist - The Complete Stax-Volt Singles, 1959-1975
DYEAR=1994
DGENRE=Soul
TTITLE0=Barbara and Joe - You're Astounding
TTITLE1=The Green Brothers - Dy-No-Mite (Did You Say My Love)
TTITLE2=The Dynamic - Soul Machine:  Boom-A-Rang
TTITLE3=John Gary Williams - Come What May
TTITLE4=Johnnie Taylor - Try Me Tonight
TTITLE5=Freddie Waters - Groovin' on My Baby's Love
TTITLE6=The Fiestas - I Can't Shake Your Love (Can't Shake You Loose)
TTITLE7=Frederick Knight - I Wanna Play with You
TTITLE8=Albert King - I'm Doing Fine
TTITLE9=Teresa Davis - No Way (I Can Live Without You)
TTITLE10=The Staple Singers - Back Road Into Town
TTITLE11=Eddie Floyd - I'm So Glad I Met You
TTITLE12=Little Milton - Packed Up and Took My Mind
TTITLE13=Johnnie Taylor - Just Keep on Loving Me
TTITLE14=R.B. Hudmon - How Can I Be a Witness
TTITLE15=Rufus Thomas - Jump Back '75 (Part 1)
TTITLE16=The Staple Singers - I Got to Be Myself
TTITLE17=Shirley Brown - It's Worth a Whippin'
TTITLE18=The Bar-Kays - Holy Ghost (Part 1)
EXTD=
EXTT0=
EXTT1=
EXTT2=
EXTT3=
EXTT4=
EXTT5=
EXTT6=
EXTT7=
EXTT8=
EXTT9=
EXTT10=
EXTT11=
EXTT12=
EXTT13=
EXTT14=
EXTT15=
EXTT16=
EXTT17=
EXTT18=
PLAYORDER=
